<?xml version="1.0" encoding="UTF-8"?>
<!DOCTYPE svg PUBLIC "-//W3C//DTD SVG 1.1//EN" "http://www.w3.org/Graphics/SVG/1.1/DTD/svg11.dtd">
<!-- Creator: CorelDRAW -->
<svg xmlns="http://www.w3.org/2000/svg" xml:space="preserve" width="1500px" height="552px" version="1.1" style="shape-rendering:geometricPrecision; text-rendering:geometricPrecision; image-rendering:optimizeQuality; fill-rule:evenodd; clip-rule:evenodd"
viewBox="0 0 742.36 273.16"
 xmlns:xlink="http://www.w3.org/1999/xlink"
 xmlns:xodm="http://www.corel.com/coreldraw/odm/2003">
 <defs>
  <style type="text/css">
   <![CDATA[
    .fil0 {fill:#5C068C;fill-rule:nonzero}
   ]]>
  </style>
 </defs>
 <g id="Capa_x0020_1">
  <metadata id="CorelCorpID_0Corel-Layer"/>
  <path class="fil0" d="M256.3 273.16l-12.24 0 0 -77.31 12.24 0 0 9.79c4.34,-6.53 10.94,-9.79 19.81,-9.79 7.96,0 14.45,2.55 19.49,7.66 5.04,5.13 7.57,12.09 7.57,20.93 0,3.5 -0.5,6.92 -1.51,10.28 -1.02,3.33 -2.6,6.35 -4.74,9.03 -2.15,2.68 -4.94,4.83 -8.35,6.45 -3.4,1.61 -7.49,2.41 -12.24,2.41 -9.02,0 -15.69,-3.41 -20.03,-10.22l0 30.77zm17.26 -30.99c5.39,0 9.62,-1.83 12.67,-5.48 3.05,-3.66 4.58,-7.95 4.58,-12.89 0,-4.92 -1.51,-9.18 -4.53,-12.78 -3.01,-3.58 -7.26,-5.38 -12.72,-5.38 -5.47,0 -9.71,1.78 -12.73,5.33 -3.02,3.57 -4.53,7.84 -4.53,12.83 0,5.84 1.67,10.37 5.01,13.56 3.34,3.22 7.42,4.81 12.25,4.81z"/>
  <path id="_1" class="fil0" d="M368.63 252.5l-12.25 0 0 -56.65 12.25 0 0 11.28c4.19,-7.52 10.72,-11.28 19.6,-11.28l0 11.28c-6.18,0 -10.89,1.42 -14.12,4.26 -3.23,2.84 -5.05,6.68 -5.48,11.51l0 29.6z"/>
  <path id="_2" class="fil0" d="M444.85 188.28c-1.81,0 -3.44,-0.65 -4.92,-1.95 -1.47,-1.29 -2.22,-3.12 -2.22,-5.5 0,-2.52 0.73,-4.4 2.19,-5.63 1.45,-1.22 3.1,-1.83 4.95,-1.83 1.85,0 3.5,0.61 4.95,1.83 1.46,1.23 2.19,3.11 2.19,5.63 0,2.02 -0.64,3.76 -1.92,5.23 -1.28,1.48 -3.02,2.22 -5.22,2.22zm6.07 64.22l-12.14 0 0 -56.65 12.14 0 0 56.65z"/>
  <path id="_3" class="fil0" d="M563.67 252.5l-12.25 0 0 -31.84c0,-3.91 -1.1,-7.17 -3.3,-9.8 -2.2,-2.63 -5.64,-3.94 -10.33,-3.94 -5.18,0.43 -9.09,2.04 -11.71,4.85 -2.63,2.8 -4.09,6.33 -4.37,10.59l0 30.14 -12.25 0 0 -56.65 12.25 0 0 10.86c3.9,-7.24 10.86,-10.86 20.87,-10.86 7.17,0 12.48,2.05 15.93,6.17 3.44,4.14 5.16,9.29 5.16,15.5l0 34.98z"/>
  <path id="_4" class="fil0" d="M638.61 252.61c-4.47,0 -8.23,-1.28 -11.29,-3.83 -3.05,-2.56 -4.57,-6.78 -4.57,-12.68l0 -29.39 -7.99 0 0 -9.16 7.99 0 0 -15.55 12.14 0 0 15.55 16.72 0 0 9.16 -16.72 0 0 27.16c0,5.11 1.88,7.66 5.64,7.66 2.84,0 5.82,-0.81 8.95,-2.45l3.09 9.38c-4.48,2.77 -9.13,4.15 -13.96,4.15z"/>
  <path id="_5" class="fil0" d="M720.27 252.61c-8.81,0 -16.41,-2.63 -22.8,-7.88l4.37 -8.52c5.97,4.54 12.28,6.81 18.96,6.81 6.18,0 9.26,-1.98 9.26,-5.98 0,-1.98 -0.92,-3.62 -2.77,-4.91 -1.84,-1.3 -4.84,-2.45 -8.99,-3.45 -4.16,-0.99 -8.13,-2.64 -11.93,-4.95 -3.8,-2.31 -5.81,-6.25 -6.02,-11.84 0,-3.78 0.96,-6.85 2.88,-9.23 3.97,-4.61 9.97,-6.92 17.99,-6.92 7.1,0 13.71,1.92 19.81,5.75l-4.47 9.35c-5.89,-3.53 -11.32,-5.3 -16.29,-5.3 -5.54,0 -8.31,1.84 -8.31,5.55 0,1.81 0.89,3.32 2.66,4.49 1.78,1.17 4.65,2.19 8.63,3.06 4.68,1.19 8.93,2.96 12.72,5.3 3.8,2.33 5.81,6.38 6.02,12.11 0,3.76 -0.97,6.89 -2.94,9.32 -1.97,2.45 -4.6,4.28 -7.89,5.46 -3.28,1.19 -6.92,1.78 -10.89,1.78z"/>
  <path class="fil0" d="M278.38 151.17l-34.12 0 0 -151.17 64.14 0c19.72,0 34.73,4.61 45.02,13.86 10.3,9.25 15.44,22.13 15.44,38.62 0,10.29 -2.01,19.61 -6.08,28 -4.07,8.38 -10.65,15.15 -19.72,20.26 -8.86,4.82 -20.41,7.24 -34.66,7.24l-30.02 0 0 43.19zm28.29 -71.7c19.87,0 29.8,-8.64 29.8,-25.91 0,-16.85 -9.93,-25.27 -29.8,-25.27l-28.29 0 0 51.18 28.29 0z"/>
  <path id="_1_2" class="fil0" d="M523.22 151.17l-36.5 0 -11.87 -29.37 -69.97 0 -11.88 29.37 -35.2 0 65.65 -151.17 35.2 0 64.57 151.17zm-59.39 -56.8l-23.75 -58.74 -23.97 58.74 47.72 0z"/>
  <polygon id="_2_3" class="fil0" points="691.18,151.17 655.98,151.17 624.23,42.11 592.06,151.17 557.07,151.17 506.11,0 542.82,0 575.65,115.32 608.25,0 641.73,0 674.77,115.32 707.16,0 742.36,0 "/>
  <g id="_2241309206624">
   <path class="fil0" d="M80.34 40.29c0,-11.41 -4.69,-21.66 -12.26,-28.99 -7.21,-6.98 -17.09,-11.3 -27.91,-11.3 -10.82,0 -20.7,4.32 -27.91,11.3 -7.58,7.33 -12.26,17.58 -12.26,28.99l0 212.21 10.26 0 0 -5.16 59.66 0 0 5.16 10.42 0 0 -212.21zm-23.84 2.59c1.16,4.19 -3.38,13.29 -12.51,13.29 -7.63,0 -15.9,-7.18 -20.31,-13.51 -4.04,-5.79 6.66,-26.79 19.47,-21.58 6.65,2.7 8.33,5.17 10.9,10.57 1.36,2.86 1.89,9.2 2.45,11.23zm8.83 18.25c-0.78,-2.67 -5.33,-8.18 -8.49,-5.74 -2.2,1.69 -1.48,5.4 0.16,9.01l0 10.45c-0.53,-4.44 -3.61,-9.06 -7.21,-9.85 -3.96,-0.88 -5.45,3.27 -5.48,8.36l-0.09 0 0 164.63 -8.61 0 0 -151.01c6.08,-5.22 6.39,-34.18 -4.76,-23.23 -8.95,8.78 -3.58,19.62 0.37,22.94l0 151.3 -8.61 0 0 -170.31c2,-1.97 3.77,-4.58 4.14,-5.28 6.15,-11.62 -11.5,-19.41 -13.46,-6.74 -0.62,3.98 1.45,9.65 3.51,13.16 0.41,0.68 0.9,1.03 1.45,1.14l0.31 167.79 -7.6 0.54 0 -198c0,-7.13 3.08,-13.67 8.06,-18.5 5.34,-5.16 12.81,-8.36 21.15,-8.36 8.33,0 15.8,3.2 21.14,8.36 4.98,4.83 8.06,11.37 8.06,18.5l0 197.79 -7.98 -0.09 0 -166.62c0.2,0.23 0.39,0.45 0.58,0.65 4.07,4.29 4.7,-7.96 3.36,-10.89zm-15.95 27.86c3.93,1.42 6.74,-7.81 7.45,-10.65 0.07,-0.3 0.13,-0.61 0.17,-0.93l0 160.58 -8.39 0 0 -149.47c0.25,0.22 0.51,0.38 0.77,0.47z"/>
   <path class="fil0" d="M183.86 63.76c0,-11.41 -4.69,-21.65 -12.26,-28.99 -7.21,-6.98 -17.09,-11.3 -27.91,-11.3 -10.82,0 -20.7,4.32 -27.91,11.3 -7.57,7.34 -12.26,17.58 -12.26,28.99l0 188.74 10.27 0 0 -5.16 59.65 0 0 5.16 10.42 0 0 -188.74zm-23.84 2.59c1.16,4.19 -3.38,13.29 -12.5,13.29 -7.64,0 -15.91,-7.18 -20.32,-13.5 -4.03,-5.8 6.66,-26.79 19.47,-21.59 6.65,2.7 8.33,5.17 10.9,10.57 1.37,2.87 1.89,9.21 2.45,11.23zm8.83 18.26c-0.78,-2.68 -5.33,-8.19 -8.49,-5.75 -2.19,1.69 -1.48,5.41 0.16,9.01l0 10.45c-0.53,-4.44 -3.6,-9.06 -7.21,-9.85 -3.95,-0.87 -5.45,3.27 -5.47,8.36l-0.1 0 0 141.16 -8.61 0 0 -127.54c6.08,-5.22 6.39,-34.17 -4.76,-23.23 -8.95,8.78 -3.57,19.62 0.37,22.94l0 127.83 -8.61 0 0 -146.84c2.01,-1.97 3.77,-4.58 4.14,-5.28 6.15,-11.62 -11.5,-19.41 -13.46,-6.73 -0.62,3.97 1.45,9.64 3.52,13.15 0.4,0.68 0.89,1.03 1.45,1.14l0.3 144.32 -7.59 0.54 0 -174.53c0,-7.13 3.08,-13.67 8.06,-18.49 5.34,-5.17 12.81,-8.37 21.14,-8.37 8.34,0 15.81,3.2 21.14,8.37 4.99,4.82 8.07,11.36 8.07,18.49l0 174.32 -7.99 -0.09 0 -143.15c0.2,0.24 0.39,0.45 0.58,0.65 4.07,4.3 4.7,-7.96 3.36,-10.88zm-15.95 27.85c3.93,1.42 6.74,-7.81 7.45,-10.65 0.07,-0.3 0.13,-0.61 0.17,-0.93l0 137.11 -8.39 0 0 -126c0.25,0.22 0.51,0.38 0.77,0.47z"/>
  </g>
 </g>
</svg>
